<svg width="200" height="40" viewBox="0 0 200 40" fill="none" xmlns="http://www.w3.org/2000/svg">
<path d="M16.7002 2.30029H19.2002V10.4003H19.3002C19.8002 8.90029 21.2002 8.20029 24.0002 8.20029H27.8002C33.8002 8.20029 35.6002 9.90029 35.6002 14.6003V17.2003C35.6002 22.3003 32.5002 23.4003 27.9002 23.4003H24.4002C21.8002 23.4003 19.8002 22.6003 19.1002 20.8003H19.0002V23.1003H16.7002V2.30029ZM33.1002 14.3003C33.1002 10.9003 31.4002 10.3003 28.0002 10.3003H24.6002C21.2002 10.3003 19.2002 10.9003 19.2002 14.4003V17.2003C19.2002 19.9003 20.4002 21.4003 24.1002 21.4003H28.1002C32.1002 21.4003 33.0002 20.0003 33.0002 17.2003V14.3003H33.1002Z" fill="white"/>
<path d="M69.0002 10.5003H65.8002V8.50029H69.0002V5.00029H71.5002V8.50029H81.3002V10.5003H71.5002V17.8003C71.5002 20.5003 72.5002 21.4003 75.2002 21.4003H76.0002C79.3002 21.4003 79.8002 20.7003 79.8002 17.6003V16.5003H81.8002V18.1003C81.8002 21.0003 81.5002 23.4003 76.1002 23.4003H74.7002C70.0002 23.4003 69.0002 21.1003 69.0002 18.7003V10.5003Z" fill="white"/>
<path d="M84.9002 8.50029H90.1002V11.3003H90.2002C90.8002 9.00029 93.1002 8.30029 95.6002 8.30029C99.6002 8.30029 101.2 10.0003 101.2 14.1003C101.2 14.5003 101.2 14.9003 101.1 15.4003H96.3002C96.3002 13.5003 95.9002 12.6003 93.6002 12.6003C91.7002 12.6003 90.4002 13.3003 90.4002 15.1003V23.2003H84.9002V8.50029Z" fill="white"/>
<path d="M103.2 18.1003C103.2 14.1003 106 13.9003 111.3 13.9003C114.3 13.9003 116 14.0003 117.1 15.1003V13.8003C117.1 12.4003 116.7 11.8003 114.5 11.8003H111.2C109.6 11.8003 109.1 11.9003 109.1 13.0003H103.7C103.7 9.00029 105.7 8.30029 110.3 8.30029H116.7C120.5 8.30029 122.5 10.1003 122.5 13.6003V23.3003H117.2V21.6003C115.7 23.2003 115.1 23.5003 112.3 23.5003H108.5C105.1 23.5003 103 22.8003 103 19.3003V18.1003H103.2ZM113.1 20.0003C116.9 20.0003 117.3 19.4003 117.3 18.4003C117.3 17.3003 117 16.9003 113.9 16.9003H111.4C109.1 16.9003 108.6 17.4003 108.6 18.6003C108.6 19.6003 109.4 19.9003 111.5 19.9003H113.1V20.0003Z" fill="white"/>
<path d="M125.5 14.5003C125.5 10.7003 126.4 8.20029 133.4 8.20029H135C137.3 8.20029 139.6 8.80029 140 11.1003H140.1V2.30029H145.6V23.2003H140.4V20.5003H140.3C139.7 22.3003 138.3 23.4003 135 23.4003H133.4C126.4 23.4003 125.5 20.9003 125.5 17.1003V14.5003ZM130.9 16.7003C130.9 18.3003 131.2 19.3003 133.8 19.3003H137.1C139.3 19.3003 140.5 18.8003 140.5 16.6003V15.2003C140.5 13.0003 139.3 12.5003 137.1 12.5003H133.8C131.1 12.5003 130.9 13.4003 130.9 15.1003V16.7003Z" fill="white"/>
<path d="M148.7 18.1003C148.7 14.1003 151.5 13.9003 156.8 13.9003C159.8 13.9003 161.5 14.0003 162.6 15.1003V13.8003C162.6 12.4003 162.2 11.8003 160 11.8003H156.7C155.1 11.8003 154.6 11.9003 154.6 13.0003H149.2C149.2 9.00029 151.2 8.30029 155.8 8.30029H162.2C166 8.30029 168 10.1003 168 13.6003V23.3003H162.7V21.6003C161.2 23.2003 160.6 23.5003 157.8 23.5003H154C150.6 23.5003 148.5 22.8003 148.5 19.3003V18.1003H148.7ZM158.6 20.0003C162.4 20.0003 162.8 19.4003 162.8 18.4003C162.8 17.3003 162.5 16.9003 159.4 16.9003H156.9C154.6 16.9003 154.1 17.4003 154.1 18.6003C154.1 19.6003 154.9 19.9003 157 19.9003H158.6V20.0003Z" fill="white"/>
<path d="M171.7 8.50029H176.9V11.3003H177C177.6 9.00029 179.9 8.30029 182.4 8.30029C186.4 8.30029 188 10.0003 188 14.1003C188 14.5003 188 14.9003 187.9 15.4003H183.1C183.1 13.5003 182.7 12.6003 180.4 12.6003C178.5 12.6003 177.2 13.3003 177.2 15.1003V23.2003H171.7V8.50029Z" fill="white"/>
<path d="M108.5 36.8003V36.0003C108.3 36.6003 107.6 36.8003 106.8 36.8003H105.7C104.3 36.8003 103.3 36.4003 103.3 34.8003V34.0003C103.3 32.5003 103.9 32.0003 105.8 32.0003H107C107.9 32.0003 108.3 32.2003 108.5 32.7003V30.1003H109.3V36.8003H108.5ZM104 34.9003C104 35.8003 104.3 36.2003 105.6 36.2003H106.9C108.1 36.2003 108.5 35.7003 108.5 34.8003V34.0003C108.5 32.9003 107.8 32.7003 106.8 32.7003H105.7C104.6 32.7003 104.1 32.9003 104.1 34.0003V34.9003H104Z" fill="white"/>
<path d="M110.8 32.1003H111.5V32.8003C111.8 32.2003 112.4 32.0003 112.9 32.0003H113.6C115.1 32.0003 115.6 32.5003 115.6 33.6003V34.2003H115V34.0003C115 32.8003 114.8 32.7003 113.4 32.7003H112.9C112.1 32.7003 111.7 33.2003 111.7 33.8003V36.8003H110.9V32.1003H110.8Z" fill="white"/>
<path d="M116.7 30.1003H117.5V31.0003H116.7V30.1003ZM116.7 32.1003H117.5V36.8003H116.7V32.1003Z" fill="white"/>
<path d="M118.4 32.1003H119.2L121.5 36.1003L123.8 32.1003H124.6L122 36.8003H121.1L118.4 32.1003Z" fill="white"/>
<path d="M125.3 33.9003C125.3 32.2003 126.5 32.0003 127.6 32.0003H128.9C130.3 32.0003 131.3 32.4003 131.3 34.0003V34.5003H126.1V34.8003C126.1 35.9003 126.6 36.1003 128 36.1003H129.1C130.1 36.1003 130.5 36.0003 130.5 35.3003H131.3V35.4003C131.3 36.5003 130.4 36.8003 128.9 36.8003H127.5C126.5 36.8003 125.3 36.6003 125.3 34.9003V33.9003ZM130.5 33.6003C130.5 33.1003 130.1 32.6003 128.9 32.6003H127.7C126.4 32.6003 126.2 32.8003 126.1 33.9003H130.5V33.6003Z" fill="white"/>
<path d="M132.5 32.1003H133.2V32.9003C133.5 32.2003 134.1 32.0003 135.1 32.0003H136.3C137.8 32.0003 138.3 32.7003 138.3 33.6003V36.8003H137.5V33.8003C137.5 33.1003 137.3 32.7003 135.8 32.7003H135.6C133.8 32.7003 133.3 33.0003 133.3 34.2003V36.9003H132.5V32.1003Z" fill="white"/>
<path d="M142.4 30.1003H143.2V32.7003C143.4 32.2003 143.8 32.0003 144.7 32.0003H145.9C147.8 32.0003 148.4 32.5003 148.4 34.0003V34.8003C148.4 36.4003 147.4 36.8003 146 36.8003H144.9C144.1 36.8003 143.4 36.6003 143.2 36.0003V36.7003H142.5V30.1003H142.4ZM147.6 33.9003C147.6 32.8003 147.1 32.6003 146 32.6003H144.9C143.8 32.6003 143.2 32.8003 143.2 33.9003V34.8003C143.2 35.7003 143.6 36.2003 144.8 36.2003H146.1C147.4 36.2003 147.7 35.8003 147.7 34.9003V33.9003H147.6Z" fill="white"/>
<path d="M149.9 37.9003C151.1 37.9003 151.4 37.8003 151.8 36.9003H151.6L148.9 32.1003H149.8L152.1 36.2003L154.1 32.1003H155L152.4 37.4003C151.9 38.4003 151.6 38.6003 150 38.6003V37.9003H149.9Z" fill="white"/>
<path d="M158.9 32.7003H157.9V32.1003H158.9V31.7003C158.9 30.6003 159.6 30.1003 160.4 30.1003H161.9V30.7003H160.5C159.9 30.7003 159.7 31.0003 159.7 31.4003V32.0003H161.9V32.6003H159.7V36.6003H158.9V32.7003Z" fill="white"/>
<path d="M167.8 36.3003C167.6 36.7003 167.3 36.8003 166.1 36.8003H164.2C163 36.8003 162.7 36.3003 162.7 35.4003V35.1003C162.7 34.0003 163.5 33.9003 164.8 33.9003H166.1C167.1 33.9003 167.5 34.0003 167.8 34.5003V33.6003C167.8 32.8003 167.3 32.6003 166.1 32.6003H164.9C163.9 32.6003 163.7 32.8003 163.7 33.2003V33.4003H162.9V33.2003C162.9 32.3003 163.4 32.0003 164.9 32.0003H166.2C167.7 32.0003 168.7 32.2003 168.7 33.6003V36.7003H167.9V36.3003H167.8ZM167.8 35.3003C167.8 34.7003 167.2 34.6003 166 34.6003H164.8C163.8 34.6003 163.5 34.7003 163.5 35.3003V35.4003C163.5 35.9003 163.7 36.1003 164.8 36.1003H165.8C167.2 36.1003 167.8 36.0003 167.8 35.4003V35.3003Z" fill="white"/>
<path d="M169.8 33.9003C169.8 32.2003 171 32.0003 172.2 32.0003H173.5C175 32.0003 175.6 32.6003 175.6 33.6003V33.7003H174.9V33.6003C174.9 32.8003 174.4 32.6003 173.6 32.6003H172C171.3 32.6003 170.6 32.7003 170.6 33.9003V34.9003C170.6 35.9003 171.2 36.2003 172.2 36.2003H173.5C174.2 36.2003 174.9 36.0003 174.9 35.2003V35.0003H175.6V35.1003C175.6 36.3003 175 36.7003 173.5 36.7003H171.7C171 36.7003 169.7 36.5003 169.7 34.8003V33.9003H169.8Z" fill="white"/>
<path d="M177.2 32.7003H176.2V32.1003H177.2V31.0003H178V32.1003H181.1V32.7003H178V35.0003C178 35.9003 178.3 36.1003 179.2 36.1003H179.4C180.4 36.1003 180.6 35.9003 180.6 34.9003V34.6003H181.2V35.1003C181.2 36.0003 181.1 36.8003 179.4 36.8003H179C177.5 36.8003 177.2 36.1003 177.2 35.3003V32.7003Z" fill="white"/>
<path d="M182.1 35.2003H182.8V35.4003C182.8 36.0003 183.1 36.2003 183.9 36.2003H185.6C186.8 36.2003 187.2 36.2003 187.2 35.5003C187.2 35.0003 187.1 34.8003 186.1 34.8003H183.7C182.6 34.8003 182.2 34.4003 182.2 33.5003V33.2003C182.2 32.4003 182.6 32.0003 184.6 32.0003H185.8C187.6 32.0003 187.8 32.5003 187.8 33.2003V33.4003H187.1C187.1 32.7003 186.6 32.7003 185.8 32.7003H184.4C183.3 32.7003 183 32.8003 183 33.3003V33.5003C183 33.9003 183.1 34.1003 184 34.1003H186.1C187.3 34.1003 188.1 34.2003 188.1 35.5003C188.1 36.8003 186.9 36.9003 185.9 36.9003H184.4C183.2 36.9003 182.1 36.9003 182.1 35.5003V35.2003Z" fill="white"/>
<path d="M52.7002 10.3003H49.0002C45.1002 10.3003 44.1002 10.9003 43.9002 14.3003H57.8002V13.3003C57.8002 11.8003 56.7002 10.3003 52.7002 10.3003Z" fill="white"/>
<path d="M53.3002 6.10029H48.8002C42.8002 6.10029 38.4002 7.50029 38.4002 13.7003V17.8003C38.4002 24.0003 42.8002 25.4003 48.8002 25.4003H53.3002C59.3002 25.4003 63.7002 24.0003 63.7002 17.8003V13.7003C63.7002 7.60029 59.3002 6.10029 53.3002 6.10029ZM44.0002 16.3003V17.2003C44.0002 20.5003 45.6002 21.4003 50.0002 21.4003H53.4002C56.5002 21.4003 57.8002 21.0003 57.9002 18.7003H60.4002V19.0003C60.4002 22.4003 57.6002 23.4003 53.0002 23.4003H48.5002C45.3002 23.4003 41.6002 22.8003 41.6002 17.4003V14.2003C41.6002 8.90029 45.3002 8.20029 48.8002 8.20029H52.8002C57.2002 8.20029 60.5002 9.30029 60.5002 14.6003V16.3003H44.0002Z" fill="white"/>
</svg>
