<svg width="284" height="80" viewBox="0 0 284 80" fill="none" xmlns="http://www.w3.org/2000/svg">
<path d="M94.065 42.0456H79.8315V69.5328H94.065V42.0456Z" fill="white"/>
<path d="M94.065 26.0071H79.8315V38.7966H94.065V26.0071Z" fill="white"/>
<path d="M148.833 39.6218C148.833 42.4582 148.936 46.2228 147.131 48.2856C145.12 50.5548 142.232 50.5548 138.571 50.9158C142.129 50.9158 144.759 51.6893 146.512 53.1849C148.266 54.6804 149.143 56.8464 149.091 59.6312V69.4296H136.147V62.055C136.147 60.1985 135.425 58.9092 133.929 58.1872C132.434 57.4652 130.216 57.1042 127.277 57.1042H111.135V69.4812H98.6032V26.1618H129.185C136.662 26.1618 141.974 26.3165 145.12 28.2246C148.266 30.1328 148.833 34.5163 148.833 39.6218ZM136.611 41.272C136.611 39.2092 136.198 37.8684 135.425 37.2495C134.239 36.3212 131.763 36.3212 127.999 36.3212H110.104V47.8215H127.225C130.783 47.8215 133.517 48.0278 134.857 47.3058C136.198 46.5838 136.611 43.4896 136.611 41.272Z" fill="white"/>
<path d="M208.294 56.176C208.294 60.611 208.139 64.7883 203.756 67.3668C200.043 69.5328 193.648 69.8938 188.646 69.8938H183.385C178.641 69.8938 175.547 69.8938 174.103 69.8422C172.607 69.8422 171.318 69.6875 170.235 69.6875C165.439 69.6359 160.54 69.3265 157.136 66.9542C153.474 64.4273 152.443 60.25 152.443 56.0728V39.3639C152.443 35.5992 153.629 31.6283 157.445 28.9982C160.849 26.6775 165.387 26.2649 169.513 26.2649H189.265C194.37 26.2649 199.888 26.2134 203.446 28.3793C207.469 30.8547 208.346 35.2382 208.346 39.3639L208.294 56.176ZM195.659 52.1019V44.2116C195.659 41.2204 195.298 39.9828 193.803 38.4356C192.153 36.6822 188.285 37.2495 184.726 37.2495H174.103C171.266 37.2495 169.1 36.5791 167.76 38.1778C166.419 39.7765 165.697 40.9626 165.697 43.9021V52.1534C165.697 54.9898 165.181 56.3307 166.883 57.5168C167.863 58.1872 171.266 58.4451 174.154 58.4451H184.778C188.388 58.4451 192.462 58.8061 193.957 57.2589C194.473 56.6917 195.659 55.093 195.659 52.1019Z" fill="white"/>
<path d="M268.374 69.4296H247.539L224.848 38.4356V69.4296H213.4V26.1102H233.203L255.481 57.2589V26.1102H268.374V69.4296Z" fill="white"/>
<path fill-rule="evenodd" clip-rule="evenodd" d="M76.6857 25.543L76.7372 38.8482L57.3467 46.7385V48.4404L76.5825 55.7634V69.5844L41.4629 51.5346L46.5684 41.4783L76.6857 25.543Z" fill="white"/>
<path fill-rule="evenodd" clip-rule="evenodd" d="M29.55 69.5844H16.4511L45.8464 11H58.9453L29.55 69.5844Z" fill="white"/>
<path fill-rule="evenodd" clip-rule="evenodd" d="M13.1505 69.5844H0L29.3953 11H42.4943L13.1505 69.5844Z" fill="white"/>
<path d="M284 56.6917H272.293V68.7076H284V56.6917Z" fill="white"/>
</svg>
