<svg width="284" height="80" viewBox="0 0 284 80" fill="none" xmlns="http://www.w3.org/2000/svg">
<path d="M208.02 31.1915C198.962 31.7187 203.031 43.0092 213.054 42.4162C222.848 41.8231 217.675 30.6204 208.02 31.1915Z" fill="white"/>
<path d="M204.204 24.2063C188.065 24.2063 175.007 36.705 175.007 52.1031C175.007 67.5233 188.088 80 204.204 80C220.342 80 233.4 67.5013 233.4 52.1031C233.4 36.705 220.319 24.2063 204.204 24.2063ZM204.204 77.0785C189.766 77.0785 178.064 65.8978 178.064 52.1031C178.064 38.3085 189.766 27.1278 204.204 27.1278C218.641 27.1278 230.343 38.3085 230.343 52.1031C230.32 65.9198 218.618 77.0785 204.204 77.0785Z" fill="white"/>
<path d="M203.307 4.74466C196.365 9.75291 197.583 17.4191 197.583 17.4191C197.583 17.4191 193.215 6.61177 187.559 0C186.801 8.50085 189.583 19.7694 189.583 19.7694C189.583 19.7694 186.042 12.7842 177.352 12.3888C184.548 16.3427 187.353 23.4597 187.973 25.3707C192.134 22.9106 197.008 21.4388 202.204 21.2631C201.675 19.5058 199.652 11.9934 203.307 4.74466Z" fill="white"/>
<path d="M53.5519 54.849V60.692H51V45.6453H56.3566C58.1728 45.6453 59.5292 46.0626 60.4488 46.8754C61.3684 47.7101 61.8282 48.8303 61.8282 50.2581C61.8282 51.6859 61.3684 52.8062 60.4258 53.6189C59.4832 54.4317 58.1268 54.849 56.3566 54.849H53.5519V54.849ZM59.2303 50.2801C59.2303 49.4234 58.9774 48.7864 58.4947 48.3251C57.9889 47.8858 57.2072 47.6442 56.1037 47.6442H53.5519V52.8721H56.0807C58.1728 52.8721 59.2303 51.9935 59.2303 50.2801Z" fill="white"/>
<path d="M72.3116 60.692L68.3803 54.6733H66.5641V60.692H64.0353V45.6453H69.5988C71.392 45.6453 72.7714 46.0626 73.691 46.8973C74.6106 47.732 75.0933 48.8523 75.0933 50.2142C75.0933 51.4004 74.7485 52.3669 74.0588 53.1137C73.3691 53.8606 72.3576 54.3438 71.0701 54.5635L75.1853 60.6701L72.3116 60.692ZM66.5871 52.96H69.3919C71.438 52.96 72.4725 52.1033 72.4725 50.368C72.4725 49.5333 72.2196 48.8962 71.7368 48.435C71.2311 47.9737 70.4724 47.732 69.4149 47.732H66.5871V52.96Z" fill="white"/>
<path d="M86.7719 57.4188H80.1278L78.9324 60.6698H76.2196L82.013 45.8647H84.9327L90.7031 60.6698H87.9903L86.7719 57.4188ZM86.0592 55.5517L83.4613 48.5226L80.8635 55.5517H86.0592Z" fill="white"/>
<path d="M103.531 46.8311C104.773 47.7098 105.6 48.9179 106.014 50.4336H103.347C103.002 49.6208 102.451 48.9838 101.669 48.5006C100.887 48.0173 99.9678 47.7757 98.8873 47.7757C97.8988 47.7757 97.0252 47.9953 96.2435 48.4347C95.4619 48.874 94.8641 49.511 94.4043 50.3018C93.9675 51.1145 93.7376 52.0591 93.7376 53.1574C93.7376 54.2996 93.9675 55.2881 94.4043 56.1228C94.8411 56.9575 95.4848 57.5725 96.2895 58.0118C97.0941 58.4512 98.0367 58.6708 99.1172 58.6708C100.428 58.6708 101.554 58.2754 102.474 57.5066C103.416 56.7378 103.968 55.6615 104.175 54.3216H98.4045V52.5423H106.313V54.8707C106.129 55.969 105.715 56.9794 105.072 57.88C104.428 58.7807 103.577 59.5055 102.497 60.0327C101.439 60.5819 100.221 60.8455 98.8413 60.8455C97.301 60.8455 95.9676 60.516 94.7722 59.857C93.5997 59.198 92.6801 58.2974 92.0594 57.1332C91.4157 55.969 91.0938 54.651 91.0938 53.1574C91.0938 51.6637 91.4157 50.3457 92.0594 49.1815C92.7031 48.0173 93.5997 47.1167 94.7722 46.4797C95.9446 45.8427 97.278 45.5132 98.8184 45.5132C100.727 45.5132 102.29 45.9525 103.531 46.8311Z" fill="white"/>
<path d="M124.268 45.887V60.6921H121.693V49.5992L117.233 60.6921H115.003L110.497 49.5992V60.6921H107.945V45.887H111.026L116.153 57.7047L121.187 45.887H124.268V45.887Z" fill="white"/>
<path d="M136.729 57.4188H130.085L128.889 60.6698H126.177L131.97 45.8647H134.89L140.66 60.6698H137.924L136.729 57.4188ZM136.016 55.5517L133.418 48.5226L130.821 55.5517H136.016Z" fill="white"/>
<path d="M151.534 45.6453V47.6002H147.143V60.692H144.568V47.6002H140.2V45.6453H151.534Z" fill="white"/>
<path d="M155.419 45.6453V60.692H152.867V45.6453H155.419Z" fill="white"/>
<path d="M169.811 46.8973C171.098 47.8418 171.949 49.1158 172.409 50.7194H169.719C169.351 49.8188 168.753 49.0939 167.949 48.5667C167.144 48.0395 166.155 47.7759 164.96 47.7759C164.017 47.7759 163.19 47.9956 162.454 48.4349C161.718 48.8742 161.144 49.5112 160.707 50.324C160.293 51.1367 160.063 52.1032 160.063 53.1796C160.063 54.2559 160.27 55.2004 160.707 56.0132C161.121 56.8259 161.718 57.4629 162.454 57.9022C163.19 58.3416 164.017 58.5612 164.96 58.5612C166.133 58.5612 167.121 58.2976 167.949 57.7705C168.753 57.2433 169.351 56.5184 169.719 55.6397H172.409C171.972 57.2433 171.098 58.5173 169.811 59.4399C168.523 60.3624 166.937 60.8457 164.983 60.8457C163.489 60.8457 162.178 60.5162 161.029 59.8792C159.879 59.2422 159.006 58.3416 158.385 57.1774C157.764 56.0132 157.442 54.6952 157.442 53.2015C157.442 51.7078 157.764 50.3899 158.385 49.2257C159.006 48.0615 159.902 47.1609 161.029 46.5019C162.178 45.8429 163.489 45.5134 164.983 45.5134C166.937 45.4914 168.523 45.9747 169.811 46.8973Z" fill="white"/>
<path d="M184.387 54.849V60.692H181.835V45.6453H187.191C189.007 45.6453 190.364 46.0626 191.283 46.8754C192.203 47.7101 192.663 48.8303 192.663 50.2581C192.663 51.6859 192.203 52.8062 191.26 53.6189C190.318 54.4317 188.961 54.849 187.191 54.849H184.387V54.849ZM190.088 50.2801C190.088 49.4234 189.835 48.7864 189.352 48.3251C188.847 47.8858 188.065 47.6442 186.961 47.6442H184.41V52.8721H186.961C189.03 52.8721 190.088 51.9935 190.088 50.2801Z" fill="white"/>
<path d="M197.031 58.8029H202.48V60.692H194.502V45.6453H197.054L197.031 58.8029Z" fill="white"/>
<path d="M214.112 57.4188H207.468L206.273 60.6698H203.56L209.353 45.8647H212.273L218.043 60.6698H215.331L214.112 57.4188ZM213.4 55.5517L210.802 48.5226L208.204 55.5517H213.4Z" fill="white"/>
<path d="M228.251 45.6453L223.009 55.2225V60.692H220.457V55.2225L215.193 45.6453H218.135L221.745 52.6085L225.354 45.6453H228.251Z" fill="white"/>
</svg>
