<svg width="284" height="80" viewBox="0 0 284 80" fill="none" xmlns="http://www.w3.org/2000/svg">
<path d="M200.185 22.8867C201.996 22.8867 203.463 21.4191 203.463 19.6088C203.463 17.7984 201.996 16.3308 200.185 16.3308C198.375 16.3308 196.907 17.7984 196.907 19.6088C196.907 21.4191 198.375 22.8867 200.185 22.8867Z" fill="white"/>
<path d="M138.79 27.0506C137.579 25.3378 135.778 24.4519 133.386 24.4519C128.011 24.4519 124.113 28.9702 124.113 35.2012C124.113 41.0484 127.745 45.1533 132.854 45.1533C135.04 45.1533 137.048 44.3264 138.229 42.8498V43.6767C138.229 48.1064 135.01 48.7561 133.15 48.7561C130.817 48.7561 128.631 47.9883 127.391 47.2795L127.155 47.1614L125.826 52.2998L125.944 52.3589C127.716 53.3334 130.433 53.8945 133.238 53.8945C136.782 53.8945 139.617 53.0381 141.536 51.3843C143.663 49.5239 144.726 46.6003 144.726 42.2297V31.0964C144.726 28.1433 144.755 26.46 144.814 25.1016L144.755 24.8949H138.967L138.79 27.0506ZM134.656 40.192C132.352 40.192 130.787 38.1248 130.787 35.0536C130.787 31.7756 132.352 29.5608 134.685 29.5608C136.25 29.5608 137.52 30.5058 137.963 32.1595C138.052 32.5139 138.199 32.8978 138.199 33.2522V36.2053C138.199 36.8845 138.022 37.4456 137.875 37.8295C137.491 39.247 136.103 40.192 134.656 40.192ZM163.33 40.3101V33.3113C163.33 27.4936 160.171 24.4224 154.294 24.4224C150.012 24.4224 147.147 25.8103 146.38 26.2533L146.232 26.3419L147.472 30.742L147.679 30.5944C148.86 29.8561 151.134 29.1178 153.231 29.1178C156.095 29.1178 156.804 30.4467 156.804 31.5394V31.5984C149.126 31.6575 144.933 34.4334 144.933 39.4537C144.933 42.525 147.206 45.8029 151.548 45.8029C153.91 45.8029 155.889 45.0942 157.247 43.5881L157.572 45.5962H163.596L163.626 45.2419C163.36 44.2673 163.33 42.4955 163.33 40.3101ZM153.615 41.0189C152.197 41.0189 151.37 40.192 151.37 38.8336C151.37 36.9141 153.29 35.91 156.834 35.8805V37.8591C156.834 38.2134 156.775 38.5678 156.686 38.8631C156.273 40.1034 154.973 41.0189 153.615 41.0189ZM195.519 33.3408V45.5667H189.023V34.2563C189.023 31.3327 188.078 29.8561 186.247 29.8561C184.475 29.8561 183.766 31.2736 183.53 31.8938C183.412 32.3367 183.412 32.9273 183.412 33.4294V45.5667H176.915V33.8723C176.915 32.3663 176.531 29.8561 174.168 29.8561C172.721 29.8561 171.835 30.9488 171.452 31.9528C171.245 32.4548 171.304 33.0455 171.304 33.4884V45.5962H164.807V31.5394C164.807 29.1178 164.659 27.0211 164.6 25.1311L164.541 24.9244H170.211L170.447 27.4345C171.481 26.017 173.312 24.4519 176.472 24.4519C179.012 24.4519 181.079 25.6922 182.053 27.7594C182.821 26.7553 183.677 25.9875 184.593 25.456C185.804 24.7767 187.133 24.4519 188.55 24.4519C192.832 24.4224 195.519 27.7594 195.519 33.3408ZM196.996 24.8949H203.493V45.5667H196.996V24.8949ZM224.46 33.3113V45.5667H217.963V34.0495C217.963 31.3031 216.9 29.8856 214.951 29.8856C213.002 29.8856 212.175 31.4213 211.909 32.1005C211.791 32.4253 211.791 32.8978 211.791 33.577V45.5372H204.999V31.4803C204.999 29.0588 204.94 26.962 204.851 25.0721V24.8653H210.639L210.905 27.4641C211.614 26.4895 213.533 24.4519 217.077 24.4519C221.655 24.4814 224.46 27.7594 224.46 33.3113ZM239.639 24.8949L239.462 27.0506C238.251 25.3378 236.45 24.4519 234.058 24.4519C228.683 24.4519 224.785 28.9702 224.785 35.2012C224.785 41.0484 228.447 45.1533 233.556 45.1533C235.741 45.1533 237.749 44.3264 238.93 42.8498V43.6767C238.93 48.1064 235.711 48.7561 233.821 48.7561C231.488 48.7561 229.303 47.9883 228.063 47.2795L227.827 47.1614L226.498 52.2998L226.616 52.3589C228.388 53.3334 231.105 53.8945 233.91 53.8945C237.454 53.8945 240.318 53.0381 242.208 51.3843C244.335 49.5239 245.427 46.6003 245.427 42.2297V31.0964C245.427 28.1433 245.427 26.46 245.516 25.1016L245.457 24.8949H239.639V24.8949ZM235.328 40.192C233.024 40.192 231.459 38.1248 231.459 35.0536C231.459 31.7756 233.024 29.5608 235.357 29.5608C236.922 29.5608 238.044 30.5058 238.517 32.1595C238.605 32.5139 238.605 32.8978 238.605 33.2522V36.2053C238.605 36.8845 238.546 37.4456 238.428 37.8295C238.044 39.247 236.804 40.192 235.328 40.192Z" fill="white"/>
<path d="M99.8974 6.55593C94.818 2.80546 85.309 0 77.7785 0C55.8368 0 38 17.8368 38 39.7785C38 51.3547 43.2861 62.5766 52.5293 70.5796C52.6179 70.6681 52.7656 70.7863 53.0609 71.0521L53.5039 71.4064L63.9874 56.1979H62.2451L73.6441 40.4577L61.7135 23.4773C64.8734 23.4773 68.8306 23.4773 69.8346 23.5068L77.749 34.6992L85.9291 23.4773H88.0554L100.311 6.85124L99.8974 6.55593ZM59.1443 54.1011H50.4326V29.6788C50.4326 27.907 49.4876 27.021 47.5681 27.021H45.7076V23.625H52.6475C56.959 23.625 59.1443 25.8398 59.1443 30.299V54.1011V54.1011Z" fill="white"/>
<path d="M104.032 9.44992C103.943 9.36133 103.796 9.2432 103.5 8.97742L103.057 8.62305L92.5737 23.8021H94.316L82.8875 39.5422L94.8181 56.5226C91.6582 56.5226 87.701 56.5226 86.697 56.4931L78.7826 45.3008L70.6025 56.5226H68.4467L56.8409 73.5621L57.2248 73.8575C62.127 77.4603 70.9864 79.9999 78.7236 79.9999C100.665 79.9999 118.502 62.1631 118.502 40.2214C118.532 28.6747 113.246 17.4529 104.032 9.44992ZM102.112 49.8486L113.334 49.8781L113.364 54.1306H95.0248V46.2458C95.0248 44.592 95.9993 42.8792 97.9484 41.1074L103.353 36.9139C105.42 35.2011 106.453 33.8722 106.453 32.9863V29.3539C106.453 28.0841 105.656 27.4344 104.091 27.4344C102.732 27.4344 102.053 28.025 102.053 29.2653L102.024 31.9822L95.0543 37.0616L95.0248 31.0963C95.0248 26.2236 98.0665 23.7725 104.12 23.7725C110.292 23.7725 113.364 25.6625 113.364 29.4425V33.9313C113.364 35.4669 112.389 37.0911 110.411 38.7449L105.006 42.8792C103.057 44.5625 102.083 46.1867 102.083 47.7223L102.112 49.8486Z" fill="white"/>
</svg>
