<?xml version="1.0" encoding="utf-8"?>
<!-- Generator: Adobe Illustrator 23.0.3, SVG Export Plug-In . SVG Version: 6.00 Build 0)  -->
<svg version="1.0" id="Layer_1" xmlns="http://www.w3.org/2000/svg" xmlns:xlink="http://www.w3.org/1999/xlink" x="0px" y="0px"
	 viewBox="0 0 131 36" style="enable-background:new 0 0 131 36;" xml:space="preserve">
<style type="text/css">
	.st0{fill:#FFFFFF;}
</style>
<path class="st0" d="M11.1,16.7c0.5,0,0.9,0,1.4,0.1c0.2,0.1,0.3,0.1,0.4,0.3c0.1,0.1,0.2,0.2,0.3,0.4c0.2,0.5,0.3,1,0.3,1.5v3.2
	c-0.5,0.3-1,0.6-1.5,0.7c-0.6,0.2-1.2,0.2-1.9,0.2c-0.9,0-1.7-0.2-2.6-0.5c-0.8-0.3-1.5-0.8-2.1-1.4C4.8,20.6,4.3,19.8,4,19
	c-0.3-0.9-0.5-1.9-0.5-2.8c0-0.9,0.1-1.8,0.4-2.7c0.3-0.8,0.7-1.5,1.3-2c0.5-0.6,1.2-1,1.9-1.3c0.7-0.3,1.5-0.5,2.3-0.5
	c0.8,0,1.6,0.1,2.3,0.4c0.8,0.3,1.5,0.7,2.1,1.3c0.7,0.6,1.2,1.4,1.5,2.3H16l-0.3-5H15c-0.2,0.6-0.6,0.9-1.1,0.9
	c-0.3,0-0.7-0.1-1-0.2c-1.3-0.4-2.6-0.6-4-0.7c-1.2,0-2.3,0.2-3.4,0.6c-1,0.4-2,0.9-2.9,1.7c-0.8,0.7-1.5,1.5-1.9,2.5
	c-0.5,1-0.7,2-0.7,3.1c0,1.5,0.4,2.9,1.3,4.2c0.9,1.2,2.1,2.1,3.5,2.6c1.5,0.6,3.2,0.9,4.8,0.9c0.9,0,1.7-0.1,2.6-0.2
	c0.8-0.1,1.7-0.3,2.5-0.6c0.7-0.2,1.3-0.5,1.9-0.9V19c0-0.8,0.1-1.4,0.4-1.8c0.3-0.4,0.8-0.5,1.5-0.6V16h-7.3V16.7z"/>
<path class="st0" d="M28.4,20.6c-0.1,0.5-0.4,1-0.7,1.5c-0.3,0.4-0.6,0.7-1.1,0.9c-0.5,0.2-1,0.3-1.5,0.3c-0.5,0-1-0.1-1.5-0.3
	c-0.4-0.2-0.8-0.5-1.1-0.9c-0.3-0.5-0.5-1-0.7-1.5c-0.2-0.6-0.2-1.3-0.2-2c0-0.9,0.1-1.7,0.4-2.5c0.2-0.6,0.6-1.2,1.2-1.6
	c0.6-0.4,1.2-0.6,1.9-0.6c0.7,0,1.3,0.2,1.9,0.6c0.5,0.4,1,1,1.2,1.6c0.3,0.8,0.4,1.7,0.4,2.5C28.6,19.3,28.5,19.9,28.4,20.6
	L28.4,20.6z M28.1,13.9c-0.9-0.5-1.9-0.7-3-0.7s-2.1,0.2-3,0.7c-0.9,0.5-1.6,1.1-2.1,2c-0.5,0.8-0.8,1.8-0.8,2.7
	c0,1,0.3,1.9,0.8,2.7c0.5,0.8,1.3,1.5,2.1,2c0.9,0.5,1.9,0.7,3,0.7c1,0,2.1-0.2,3-0.7c0.9-0.5,1.6-1.1,2.1-2
	c0.5-0.8,0.8-1.8,0.8-2.7c0-1-0.3-1.9-0.8-2.7C29.7,15,29,14.3,28.1,13.9"/>
<path class="st0" d="M40.5,22.2c-0.3,0.3-0.6,0.5-0.9,0.6c-0.4,0.1-0.9,0.2-1.3,0.1h-1.9c-0.2,0-0.4,0-0.7-0.1
	c-0.1,0-0.1-0.1-0.2-0.1c0,0-0.1-0.1-0.1-0.2c-0.1-0.2-0.1-0.5-0.1-0.7v-6.4c0-0.3,0-0.7,0.1-1c0-0.1,0.1-0.2,0.2-0.3
	c0.1-0.1,0.2-0.2,0.3-0.2c0.3-0.1,0.6-0.2,0.9-0.1h0.4v-0.5h-5.8v0.5h0.3c0.6,0,1,0.1,1.2,0.4c0.2,0.4,0.4,0.8,0.3,1.3v6.2
	c0,0.3,0,0.7-0.1,1c0,0.1-0.1,0.2-0.2,0.3c-0.1,0.1-0.2,0.1-0.3,0.2c-0.3,0.1-0.6,0.1-0.9,0.1h-0.4v0.5H41l1-2.8h-0.5
	C41.2,21.4,40.9,21.8,40.5,22.2"/>
<path class="st0" d="M52.4,20.2c-0.2,0.5-0.4,1-0.8,1.4c-0.4,0.4-0.8,0.7-1.3,1C49.7,22.9,49,23,48.4,23c-0.4,0-0.8,0-1.2-0.1
	c-0.3,0-0.6-0.1-0.9-0.2v-8.3c0.6-0.1,1.2-0.2,1.9-0.2c0.8,0,1.6,0.2,2.4,0.5c0.7,0.4,1.2,0.9,1.6,1.6c0.4,0.7,0.6,1.5,0.6,2.4
	C52.6,19.1,52.5,19.7,52.4,20.2z M53.6,15c-0.5-0.5-1.2-0.9-1.9-1.2c-0.8-0.3-1.8-0.5-2.7-0.5h-7v0.5h0.6c0.2,0,0.4,0,0.6,0.1
	c0.2,0.1,0.4,0.2,0.5,0.3c0.2,0.4,0.4,0.8,0.3,1.3v6.2c0,0.3,0,0.7-0.1,1c0,0.1-0.1,0.2-0.2,0.3c-0.1,0.1-0.2,0.1-0.3,0.2
	c-0.3,0.1-0.6,0.2-0.9,0.1H42v0.5h6.6c1.3,0,2.5-0.2,3.6-0.8c0.9-0.4,1.6-1.1,2.1-2c0.4-0.7,0.7-1.6,0.7-2.5
	C55.1,17.2,54.5,15.9,53.6,15"/>
<path class="st0" d="M64.6,22c-0.2,0.3-0.5,0.5-0.9,0.7c-0.4,0.2-0.9,0.2-1.3,0.2h-2.4c-0.2,0-0.4,0-0.6-0.1c-0.1,0-0.1-0.1-0.2-0.1
	c0,0-0.1-0.1-0.1-0.2c-0.1-0.2-0.1-0.4-0.1-0.6v-3.2h2.8c0.2,0,0.4,0,0.6,0c0.2,0.1,0.4,0.1,0.5,0.3c0.2,0.2,0.3,0.6,0.3,1.2h0.5
	v-3.8h-0.5c0,0.4-0.1,0.8-0.3,1.1c-0.3,0.2-0.7,0.3-1.1,0.3H59v-3.7h3.3c0.4,0,0.8,0.1,1.2,0.3c0.4,0.3,0.6,0.8,0.8,1.3h0.5v-2.4
	h-9.5v0.5c0.3,0,0.7,0,1,0.1c0.1,0,0.2,0.1,0.3,0.2c0.1,0.1,0.1,0.2,0.2,0.3c0.1,0.3,0.1,0.7,0.1,1v6.2c0,0.3,0,0.7-0.1,1
	c0,0.1-0.1,0.2-0.2,0.3c-0.1,0.1-0.2,0.1-0.3,0.2c-0.3,0.1-0.7,0.1-1,0.1v0.5H65l0.9-3h-0.5C65.1,21.2,64.9,21.6,64.6,22z"/>
<path class="st0" d="M79.2,13.3h-4.5v0.5h0.6c0.2,0,0.4,0,0.5,0.1c0.2,0.1,0.3,0.2,0.5,0.3c0.2,0.3,0.3,0.7,0.3,1.1v5.2l-7.1-7.1H66
	v0.5c0.4,0,0.7,0.1,1.1,0.3c0.3,0.2,0.6,0.5,0.9,0.8v6.9c0,0.4-0.1,0.8-0.3,1.1c-0.1,0.1-0.3,0.2-0.5,0.3c-0.2,0.1-0.4,0.1-0.5,0.1
	H66v0.5h4.7v-0.5h-0.5c-0.3,0-0.6,0-0.9-0.1c-0.1,0-0.2-0.1-0.3-0.2c-0.1-0.1-0.1-0.2-0.2-0.3c-0.1-0.3-0.1-0.7-0.1-1v-6l8.3,8.2
	h0.3v-8.4c0-0.3,0-0.6,0.1-0.9c0.1-0.2,0.2-0.4,0.4-0.5c0.2-0.1,0.5-0.2,0.8-0.2h0.5V13.3z"/>
<path class="st0" d="M98.6,20.1l1.9-4.1l2.1,4.1H98.6z M84.5,16v-5.6c0.6-0.2,1.2-0.3,1.9-0.3c0.5,0,1,0.1,1.4,0.2
	c0.4,0.1,0.8,0.3,1.1,0.6c0.3,0.2,0.5,0.6,0.7,0.9c0.2,0.4,0.2,0.8,0.2,1.2c0,0.4-0.1,0.8-0.2,1.2c-0.2,0.4-0.4,0.7-0.7,1
	c-0.6,0.6-1.5,0.9-2.6,0.9H84.5z M106.5,22.9c-0.1-0.2-0.3-0.3-0.4-0.5l-4.7-9.2H101l-4,8.4c-0.2,0.5-0.5,0.9-0.8,1.3
	C96.1,22.9,96,22.9,96,23c-0.4,0-0.8-0.1-1.1-0.3c-0.4-0.2-0.7-0.4-1-0.8l-4.5-5.2c1.1-0.2,2-0.7,2.8-1.5c0.7-0.7,1.1-1.6,1.1-2.6
	c0-0.6-0.1-1.2-0.4-1.7c-0.3-0.5-0.7-0.9-1.2-1.2c-0.5-0.3-1.1-0.5-1.8-0.7c-0.7-0.1-1.4-0.2-2.1-0.2h-8.8v0.7h0.2
	c0.1,0,0.1,0,0.2,0c0.6,0,1.1,0.1,1.6,0.4c0.4,0.3,0.5,0.8,0.5,1.6v9.1c0,0.5,0,1-0.2,1.5c-0.1,0.2-0.2,0.3-0.3,0.4
	c-0.1,0.1-0.3,0.2-0.4,0.3c-0.5,0.1-1,0.2-1.6,0.2v0.7H87V23c-0.5,0-1.1,0-1.6-0.2c-0.2-0.1-0.3-0.1-0.4-0.3
	c-0.1-0.1-0.2-0.3-0.3-0.4c-0.2-0.5-0.2-1-0.2-1.5v-3.6h1.5l5.7,6.6H99v-0.5c-0.9,0-1.3-0.3-1.3-0.8c0-0.3,0.1-0.6,0.3-0.8l0.3-0.6
	h4.9l0.5,0.9c0.2,0.3,0.3,0.6,0.3,0.9c0,0.1,0,0.2-0.1,0.2s-0.1,0.1-0.2,0.2c-0.3,0.1-0.6,0.1-0.9,0.1v0.5h4.8v-0.5
	c-0.2,0-0.4,0-0.6-0.1C106.8,23.1,106.6,23,106.5,22.9"/>
<path class="st0" d="M113.3,23.1c-0.8,0-1.5-0.2-2.2-0.6c-0.6-0.4-1.2-0.9-1.5-1.6c-0.4-0.7-0.5-1.5-0.5-2.3c0-0.8,0.2-1.7,0.5-2.4
	c0.3-0.7,0.8-1.3,1.4-1.7c0.6-0.4,1.3-0.6,2.1-0.6c0.4,0,0.8,0.1,1.2,0.2c0.4,0.1,0.7,0.3,1.1,0.5c0.3,0.2,0.6,0.5,0.9,0.9
	c0.3,0.3,0.5,0.7,0.6,1.1h0.5l-0.3-3.5h-0.5c0,0.2,0,0.3-0.1,0.4c0,0-0.1,0.1-0.2,0.1c-0.1,0-0.1,0-0.2,0c-0.3,0-0.5-0.1-0.8-0.2
	c-0.4-0.1-0.8-0.2-1.2-0.3c-0.4-0.1-0.8-0.1-1.2-0.1c-1.1,0-2.2,0.2-3.2,0.7c-0.9,0.5-1.7,1.2-2.3,2c-0.5,0.8-0.8,1.8-0.8,2.8
	c0,0.7,0.1,1.4,0.4,2c0.3,0.7,0.7,1.3,1.2,1.8c0.6,0.5,1.2,1,2,1.2c0.8,0.3,1.7,0.5,2.6,0.4c1,0,2.1-0.2,2.9-0.7
	c0.9-0.5,1.6-1.3,2.1-2.2l-0.5-0.4C116.2,22.3,114.9,23.1,113.3,23.1z"/>
<path class="st0" d="M128.1,20.7c-0.2,0.4-0.5,0.9-0.8,1.3c-0.2,0.3-0.5,0.5-0.9,0.7c-0.4,0.2-0.9,0.2-1.3,0.2h-2.4
	c-0.2,0-0.4,0-0.6-0.1c-0.1,0-0.1-0.1-0.2-0.1c0,0-0.1-0.1-0.1-0.2c0-0.2-0.1-0.4-0.1-0.7v-3.2h2.8c0.2,0,0.4,0,0.6,0
	c0.2,0.1,0.4,0.1,0.5,0.3c0.2,0.2,0.3,0.6,0.3,1.2h0.5v-3.8H126c0,0.4-0.1,0.8-0.3,1.1c-0.3,0.2-0.7,0.3-1.1,0.3h-2.8v-3.7h3.3
	c0.4,0,0.8,0.1,1.2,0.3c0.4,0.3,0.6,0.8,0.8,1.3h0.5v-2.4H118v0.5c0.3,0,0.7,0,1,0.1c0.1,0,0.2,0.1,0.3,0.2c0.1,0.1,0.1,0.2,0.2,0.3
	c0.1,0.3,0.1,0.7,0.1,1v6.2c0,0.3,0,0.7-0.1,1c0,0.1-0.1,0.2-0.2,0.3c-0.1,0.1-0.2,0.1-0.3,0.2c-0.3,0.1-0.7,0.1-1,0.1v0.5h9.7
	l0.9-3H128.1z"/>
</svg>
