<svg width="82" height="46" viewBox="0 0 82 46" fill="none" xmlns="http://www.w3.org/2000/svg">
<path d="M13.8711 29.0525L17.6729 10.9082H24.0505L21.2819 24.1288H26.1581L25.125 29.0525H13.8711Z" fill="white"/>
<path d="M49.079 29.0525L49.1478 26.509H46.6409L45.594 29.0525H39.3679L47.6051 10.9082H54.6301L55.4428 29.0525H49.079ZM49.8228 17.6817L48.28 21.5853H49.6575L49.8228 17.6817Z" fill="white"/>
<path d="M72.7161 18.7834C71.9585 21.4765 69.8372 22.7686 67.2614 22.8638C66.1043 22.891 63.7351 22.8366 63.7351 22.8366L62.4403 29.0525H56.2417L60.0435 10.9082H69.4102C72.3993 10.9082 73.9145 12.5676 73.5151 14.9478C73.46 15.3559 73.3222 16.1039 73.1707 16.8248C73.0054 17.6001 72.8263 18.3754 72.7161 18.7834ZM66.9446 15.1246C66.8482 14.7846 66.6553 14.6078 66.1594 14.6078H65.4018L64.6305 18.3074C64.6305 18.3074 65.085 18.3346 65.3743 18.3346C65.8013 18.3346 66.3247 18.0625 66.5038 17.5865C66.5864 17.3417 66.738 16.7296 66.7931 16.4304C66.8757 16.0903 67.041 15.4783 66.9446 15.1246Z" fill="white"/>
<path d="M38.8169 29.0525L39.8224 24.1288H27.081L26.0479 29.0525H38.8169Z" fill="white"/>
<path d="M40.153 22.4014L41.1586 17.4913H28.4722L27.4391 22.4014H40.153Z" fill="white"/>
<path d="M62.3439 30.8071H13.4579L12.4248 35.7308L62.3439 30.8071Z" fill="white"/>
<path d="M42.4947 10.9218H29.8496L28.8166 15.8319H41.5029L42.4947 10.9218Z" fill="white"/>
</svg>
